<svg width="99" height="81" viewBox="0 0 99 81" fill="none" xmlns="http://www.w3.org/2000/svg">
<path d="M45.601 80.28C67.7697 80.28 85.741 62.3087 85.741 40.14C85.741 17.9713 67.7697 0 45.601 0C23.4323 0 5.461 17.9713 5.461 40.14C5.461 62.3087 23.4323 80.28 45.601 80.28Z" fill="#0B3D91"/>
<path d="M43.231 8.16001C43.4795 8.16001 43.681 7.95854 43.681 7.71001C43.681 7.46148 43.4795 7.26001 43.231 7.26001C42.9825 7.26001 42.781 7.46148 42.781 7.71001C42.781 7.95854 42.9825 8.16001 43.231 8.16001Z" fill="white"/>
<path d="M47.851 8.75986C48.0995 8.75986 48.301 8.55839 48.301 8.30986C48.301 8.06133 48.0995 7.85986 47.851 7.85986C47.6025 7.85986 47.401 8.06133 47.401 8.30986C47.401 8.55839 47.6025 8.75986 47.851 8.75986Z" fill="white"/>
<path d="M53.911 16.9198C54.1595 16.9198 54.361 16.7183 54.361 16.4698C54.361 16.2212 54.1595 16.0198 53.911 16.0198C53.6625 16.0198 53.461 16.2212 53.461 16.4698C53.461 16.7183 53.6625 16.9198 53.911 16.9198Z" fill="white"/>
<path d="M20.671 58.9198C20.9195 58.9198 21.121 58.7183 21.121 58.4698C21.121 58.2212 20.9195 58.0198 20.671 58.0198C20.4225 58.0198 20.221 58.2212 20.221 58.4698C20.221 58.7183 20.4225 58.9198 20.671 58.9198Z" fill="white"/>
<path d="M21.841 62.5199C22.0895 62.5199 22.291 62.3184 22.291 62.0699C22.291 61.8213 22.0895 61.6199 21.841 61.6199C21.5925 61.6199 21.391 61.8213 21.391 62.0699C21.391 62.3184 21.5925 62.5199 21.841 62.5199Z" fill="white"/>
<path d="M16.261 59.3469C16.4471 59.3469 16.598 59.196 16.598 59.0098C16.598 58.8237 16.4471 58.6729 16.261 58.6729C16.0749 58.6729 15.924 58.8237 15.924 59.0098C15.924 59.196 16.0749 59.3469 16.261 59.3469Z" fill="white"/>
<path d="M34.561 66.4199C34.7477 66.4199 34.899 66.2686 34.899 66.0819C34.899 65.8952 34.7477 65.7439 34.561 65.7439C34.3743 65.7439 34.223 65.8952 34.223 66.0819C34.223 66.2686 34.3743 66.4199 34.561 66.4199Z" fill="white"/>
<path d="M63.263 60.457C63.4491 60.457 63.6 60.3061 63.6 60.12C63.6 59.9338 63.4491 59.783 63.263 59.783C63.0769 59.783 62.926 59.9338 62.926 60.12C62.926 60.3061 63.0769 60.457 63.263 60.457Z" fill="white"/>
<path d="M71.604 51.3979C71.7907 51.3979 71.942 51.2466 71.942 51.0599C71.942 50.8732 71.7907 50.7219 71.604 50.7219C71.4173 50.7219 71.266 50.8732 71.266 51.0599C71.266 51.2466 71.4173 51.3979 71.604 51.3979Z" fill="white"/>
<path d="M30.721 19.4389C30.9071 19.4389 31.058 19.288 31.058 19.1019C31.058 18.9158 30.9071 18.7649 30.721 18.7649C30.5349 18.7649 30.384 18.9158 30.384 19.1019C30.384 19.288 30.5349 19.4389 30.721 19.4389Z" fill="white"/>
<path d="M39.901 12.6969C40.0871 12.6969 40.238 12.5461 40.238 12.3599C40.238 12.1738 40.0871 12.0229 39.901 12.0229C39.7149 12.0229 39.564 12.1738 39.564 12.3599C39.564 12.5461 39.7149 12.6969 39.901 12.6969Z" fill="white"/>
<path d="M38.904 12.0368C39.0901 12.0368 39.241 11.8859 39.241 11.6998C39.241 11.5137 39.0901 11.3628 38.904 11.3628C38.7179 11.3628 38.567 11.5137 38.567 11.6998C38.567 11.8859 38.7179 12.0368 38.904 12.0368Z" fill="white"/>
<path d="M38.004 11.3769C38.1901 11.3769 38.341 11.226 38.341 11.0399C38.341 10.8538 38.1901 10.7029 38.004 10.7029C37.8179 10.7029 37.667 10.8538 37.667 11.0399C37.667 11.226 37.8179 11.3769 38.004 11.3769Z" fill="white"/>
<path d="M32.161 21.1799C32.3471 21.1799 32.498 21.029 32.498 20.8429C32.498 20.6567 32.3471 20.5059 32.161 20.5059C31.9749 20.5059 31.824 20.6567 31.824 20.8429C31.824 21.029 31.9749 21.1799 32.161 21.1799Z" fill="white"/>
<path d="M45.683 3.63689C45.8691 3.63689 46.02 3.48601 46.02 3.29989C46.02 3.11377 45.8691 2.96289 45.683 2.96289C45.4969 2.96289 45.346 3.11377 45.346 3.29989C45.346 3.48601 45.4969 3.63689 45.683 3.63689Z" fill="white"/>
<path d="M47.904 13.3569C48.0901 13.3569 48.241 13.206 48.241 13.0199C48.241 12.8337 48.0901 12.6829 47.904 12.6829C47.7179 12.6829 47.567 12.8337 47.567 13.0199C47.567 13.206 47.7179 13.3569 47.904 13.3569Z" fill="white"/>
<path d="M44.401 11.4589C44.5871 11.4589 44.738 11.308 44.738 11.1219C44.738 10.9358 44.5871 10.7849 44.401 10.7849C44.2149 10.7849 44.064 10.9358 44.064 11.1219C44.064 11.308 44.2149 11.4589 44.401 11.4589Z" fill="white"/>
<path d="M38.401 14.04C38.5871 14.04 38.738 13.8891 38.738 13.703C38.738 13.5168 38.5871 13.366 38.401 13.366C38.2149 13.366 38.064 13.5168 38.064 13.703C38.064 13.8891 38.2149 14.04 38.401 14.04Z" fill="white"/>
<path d="M64.861 69.3598C65.0471 69.3598 65.198 69.2089 65.198 69.0228C65.198 68.8367 65.0471 68.6858 64.861 68.6858C64.6749 68.6858 64.524 68.8367 64.524 69.0228C64.524 69.2089 64.6749 69.3598 64.861 69.3598Z" fill="white"/>
<path d="M20.101 61.0879C20.2877 61.0879 20.439 60.9365 20.439 60.7499C20.439 60.5632 20.2877 60.4119 20.101 60.4119C19.9143 60.4119 19.763 60.5632 19.763 60.7499C19.763 60.9365 19.9143 61.0879 20.101 61.0879Z" fill="white"/>
<path d="M43.561 65.438C43.7477 65.438 43.899 65.2866 43.899 65.1C43.899 64.9133 43.7477 64.762 43.561 64.762C43.3743 64.762 43.223 64.9133 43.223 65.1C43.223 65.2866 43.3743 65.438 43.561 65.438Z" fill="white"/>
<path d="M27.083 60.8178C27.2697 60.8178 27.421 60.6665 27.421 60.4798C27.421 60.2932 27.2697 60.1418 27.083 60.1418C26.8963 60.1418 26.745 60.2932 26.745 60.4798C26.745 60.6665 26.8963 60.8178 27.083 60.8178Z" fill="white"/>
<path d="M30.001 65.5808C30.1877 65.5808 30.339 65.4295 30.339 65.2428C30.339 65.0561 30.1877 64.9048 30.001 64.9048C29.8143 64.9048 29.663 65.0561 29.663 65.2428C29.663 65.4295 29.8143 65.5808 30.001 65.5808Z" fill="white"/>
<path d="M51.481 62.58C51.6671 62.58 51.818 62.4291 51.818 62.243C51.818 62.0569 51.6671 61.906 51.481 61.906C51.2949 61.906 51.144 62.0569 51.144 62.243C51.144 62.4291 51.2949 62.58 51.481 62.58Z" fill="white"/>
<path d="M63.323 55.8969C63.5091 55.8969 63.66 55.746 63.66 55.5599C63.66 55.3738 63.5091 55.2229 63.323 55.2229C63.1369 55.2229 62.986 55.3738 62.986 55.5599C62.986 55.746 63.1369 55.8969 63.323 55.8969Z" fill="white"/>
<path d="M72.301 59.999C72.4871 59.999 72.638 59.8481 72.638 59.662C72.638 59.4758 72.4871 59.325 72.301 59.325C72.1149 59.325 71.964 59.4758 71.964 59.662C71.964 59.8481 72.1149 59.999 72.301 59.999Z" fill="white"/>
<path d="M75.361 61.957C75.5471 61.957 75.698 61.8061 75.698 61.62C75.698 61.4338 75.5471 61.283 75.361 61.283C75.1749 61.283 75.024 61.4338 75.024 61.62C75.024 61.8061 75.1749 61.957 75.361 61.957Z" fill="white"/>
<path d="M75.864 56.6169C76.0501 56.6169 76.201 56.466 76.201 56.2799C76.201 56.0937 76.0501 55.9429 75.864 55.9429C75.6779 55.9429 75.527 56.0937 75.527 56.2799C75.527 56.466 75.6779 56.6169 75.864 56.6169Z" fill="white"/>
<path d="M31.223 49.0568C31.4091 49.0568 31.56 48.9059 31.56 48.7198C31.56 48.5337 31.4091 48.3828 31.223 48.3828C31.0369 48.3828 30.886 48.5337 30.886 48.7198C30.886 48.9059 31.0369 49.0568 31.223 49.0568Z" fill="white"/>
<path d="M31.351 56.91C31.5995 56.91 31.801 56.7085 31.801 56.46C31.801 56.2115 31.5995 56.01 31.351 56.01C31.1025 56.01 30.901 56.2115 30.901 56.46C30.901 56.7085 31.1025 56.91 31.351 56.91Z" fill="white"/>
<path d="M34.051 62.61C34.2995 62.61 34.501 62.4085 34.501 62.16C34.501 61.9114 34.2995 61.71 34.051 61.71C33.8025 61.71 33.601 61.9114 33.601 62.16C33.601 62.4085 33.8025 62.61 34.051 62.61Z" fill="white"/>
<path d="M66.391 56.6698C66.6395 56.6698 66.841 56.4683 66.841 56.2198C66.841 55.9712 66.6395 55.7698 66.391 55.7698C66.1425 55.7698 65.941 55.9712 65.941 56.2198C65.941 56.4683 66.1425 56.6698 66.391 56.6698Z" fill="white"/>
<path d="M78.031 56.0099C78.2795 56.0099 78.481 55.8084 78.481 55.5599C78.481 55.3113 78.2795 55.1099 78.031 55.1099C77.7825 55.1099 77.581 55.3113 77.581 55.5599C77.581 55.8084 77.7825 56.0099 78.031 56.0099Z" fill="white"/>
<path d="M72.271 53.5499C72.5195 53.5499 72.721 53.3484 72.721 53.0999C72.721 52.8514 72.5195 52.6499 72.271 52.6499C72.0225 52.6499 71.821 52.8514 71.821 53.0999C71.821 53.3484 72.0225 53.5499 72.271 53.5499Z" fill="white"/>
<path d="M66.391 53.7899C66.6395 53.7899 66.841 53.5884 66.841 53.3399C66.841 53.0914 66.6395 52.8899 66.391 52.8899C66.1425 52.8899 65.941 53.0914 65.941 53.3399C65.941 53.5884 66.1425 53.7899 66.391 53.7899Z" fill="white"/>
<path d="M54.262 7.42796L55.381 7.32096L54.264 7.25796C54.229 7.04196 54.056 6.87296 53.838 6.84496L53.731 5.73096L53.667 6.85396C53.465 6.89896 53.31 7.06796 53.285 7.27796L52.141 7.38196L53.293 7.44396C53.335 7.63696 53.491 7.78796 53.687 7.82396L53.791 8.97196L53.852 7.82596C54.059 7.79096 54.223 7.63196 54.262 7.42796Z" fill="white"/>
<path d="M35.376 19.886L36.495 19.779L35.378 19.716C35.344 19.5 35.17 19.331 34.952 19.303L34.845 18.189L34.782 19.312C34.579 19.357 34.424 19.526 34.399 19.736L33.255 19.84L34.407 19.902C34.449 20.095 34.605 20.246 34.801 20.282L34.905 21.43L34.967 20.284C35.174 20.25 35.338 20.09 35.376 19.886Z" fill="white"/>
<path d="M77.211 52.824L78.33 52.717L77.213 52.654C77.179 52.438 77.005 52.269 76.787 52.241L76.68 51.127L76.617 52.25C76.415 52.295 76.26 52.464 76.235 52.674L75.091 52.778L76.243 52.84C76.285 53.033 76.441 53.184 76.637 53.22L76.741 54.368L76.803 53.222C77.008 53.188 77.172 53.029 77.211 52.824Z" fill="white"/>
<path d="M31.596 70.0459L32.715 69.9389L31.598 69.8759C31.563 69.6599 31.39 69.4909 31.172 69.4629L31.065 68.3499L31.002 69.4719C30.799 69.5169 30.644 69.6859 30.619 69.8959L29.475 69.9999L30.627 70.0619C30.669 70.2549 30.825 70.4069 31.021 70.4419L31.125 71.5899L31.187 70.4439C31.393 70.4099 31.558 70.2499 31.596 70.0459Z" fill="white"/>
<path d="M73.656 61.646L74.775 61.539L73.658 61.476C73.624 61.26 73.45 61.091 73.232 61.063L73.125 59.949L73.062 61.071C72.86 61.116 72.705 61.285 72.68 61.495L71.536 61.599L72.688 61.661C72.73 61.854 72.886 62.005 73.082 62.041L73.186 63.189L73.248 62.043C73.453 62.01 73.618 61.85 73.656 61.646Z" fill="white"/>
<path d="M55.12 30.5249C50.453 32.3389 45.901 33.9579 42.06 35.1599C34.255 37.6039 12.9 44.2199 0 52.5599L1.08 52.9799C8.94 48.5399 14.049 47.1449 18.96 45.5999C24.3 43.9199 41.563 39.8799 49.38 37.6799C52.021 36.9369 55.114 35.9639 58.39 34.7799C57.628 33.7169 56.824 32.6509 55.978 31.5869C55.695 31.2279 55.408 30.8739 55.12 30.5249ZM60.822 38.3839C59.692 39.1469 58.745 39.7559 58.082 40.1399C54.242 42.3599 35.521 55.1399 31.262 58.0799C27.003 61.0199 15.182 72.1799 11.702 75.4199L11.582 76.7389C22.802 66.6589 26.322 64.1729 30.782 60.7799C36.302 56.5799 47.721 48.8099 51.602 46.3199C55.312 43.9399 58.658 41.7509 61.661 39.7479C61.612 39.6659 61.563 39.5839 61.514 39.5009C61.288 39.1299 61.057 38.7579 60.822 38.3839ZM78.361 19.8599C72.895 23.0639 64.28 26.9309 55.922 30.2119C56.122 30.4569 56.321 30.7039 56.519 30.9529C57.453 32.1289 58.334 33.3129 59.163 34.4979C65.733 32.0779 72.942 28.8299 78.662 24.8989C75.937 27.4809 66.928 34.2139 61.435 37.9669C61.718 38.4279 61.992 38.8889 62.257 39.3479C70.579 33.7789 76.179 29.6799 79.442 26.9389C83.942 23.1589 94.202 14.6989 98.102 3.35889C91.261 12.0599 83.173 17.0389 78.361 19.8599Z" fill="#FC3D21"/>
<path d="M40.436 50.0788C39.551 48.9649 38.327 47.4729 37.408 46.3158C36.179 44.7688 35.042 43.2059 34 41.6448C33.66 41.7298 33.321 41.8148 32.982 41.8998C34.24 43.8628 35.637 45.8228 37.159 47.7388C38.271 49.1389 39.282 50.2659 39.8 50.9669C39.905 51.1088 40.113 51.4229 40.394 51.8409C40.718 51.6208 41.045 51.3988 41.375 51.1749C41.056 50.8279 40.741 50.4628 40.436 50.0788ZM46.896 55.9429C46.169 55.2549 44.406 54.1059 42.571 52.3819C42.166 52.6599 41.757 52.9418 41.347 53.2258C42.532 54.8958 44.146 56.9468 45.41 57.5448C47.314 58.4468 47.827 56.8249 46.896 55.9429ZM56.519 30.9528C46.027 17.7468 33.21 10.4918 27.684 14.8828C23.392 18.2928 25.154 28.2589 31.07 38.7278C31.376 38.6229 31.679 38.5198 31.979 38.4178C26.008 28.2178 24.374 18.7388 28.422 15.5218C33.509 11.4798 45.792 18.7628 55.98 31.5858C58.089 34.2398 59.943 36.9038 61.513 39.5008C67.525 49.4508 69.37 58.4489 65.216 62.1219C63.945 63.2459 60.061 63.6869 54.973 61.3969C54.902 61.4859 55.016 61.7269 55.105 61.7859C59.497 63.5519 63.704 64.2249 65.828 62.5379C70.932 58.4819 67.011 44.1588 56.519 30.9528Z" fill="white"/>
<path d="M11.521 32.5198H18.241L23.881 42.0898C23.881 42.0898 23.881 35.1598 23.881 34.6198C23.881 33.7798 22.816 32.6848 22.441 32.5198C22.891 32.5198 26.821 32.5198 27.091 32.5198C26.806 32.5948 25.891 33.7048 25.891 34.6198C25.891 35.0698 25.891 45.1198 25.891 45.5998C25.891 46.2748 26.866 47.2048 27.331 47.5648H20.851L15.121 37.9498C15.121 37.9498 15.121 45.1198 15.121 45.5098C15.121 46.2598 15.856 46.9798 16.621 47.5948H11.671C12.376 47.2948 13.051 46.3498 13.111 45.5998C13.171 44.8498 13.111 35.1748 13.111 34.7548C13.111 33.8398 12.226 33.0898 11.521 32.5198Z" fill="white"/>
<path d="M72.991 47.5648H81.931C81.436 47.4448 80.881 46.8598 80.581 46.0798C80.281 45.2998 75.541 32.5198 75.541 32.5198H72.142C71.178 33.2138 70.145 33.9458 69.042 34.7168C69.039 34.7448 69.036 34.7728 69.031 34.7998C68.883 35.6998 66.223 45.3338 66.061 45.8098C65.836 46.4698 64.681 47.2048 64.216 47.5948H69.031C68.551 47.0548 68.161 46.5298 68.251 45.9298C68.341 45.3298 68.611 44.1298 68.611 44.1298H73.591C73.816 44.7298 73.984 45.2688 74.071 45.7798C74.176 46.3948 73.546 47.0848 72.991 47.5648ZM69.061 42.2098L70.741 36.7198L72.961 42.2098H69.061ZM68.304 33.0678C68.551 32.8858 68.799 32.7028 69.046 32.5198H67.741C67.871 32.6398 68.086 32.8288 68.304 33.0678Z" fill="white"/>
<path d="M34.111 45.9298C34.201 45.3298 34.471 44.1298 34.471 44.1298H39.451C39.676 44.7298 39.844 45.2688 39.931 45.7798C40.036 46.3948 39.406 47.0848 38.851 47.5648H46.722C46.886 47.4548 47.049 47.3448 47.212 47.2358C46.907 46.9658 46.626 46.5608 46.441 46.0798C46.141 45.2998 41.401 32.5198 41.401 32.5198H33.601C33.976 32.8648 35.056 33.7948 34.891 34.7998C34.744 35.6998 32.083 45.3338 31.921 45.8098C31.696 46.4698 30.541 47.2048 30.076 47.5948H34.891C34.411 47.0548 34.021 46.5298 34.111 45.9298ZM36.601 36.7198L38.821 42.2098H34.921L36.601 36.7198Z" fill="white"/>
<path d="M61.3 39.9878C59.832 40.9658 58.283 41.9868 56.651 43.0528C57.383 43.4078 57.966 43.8538 58.022 44.4298C58.126 45.5118 55.952 46.0348 53.987 45.8098C53.594 45.7648 53.208 45.6618 52.84 45.5238C52.432 45.7868 52.02 46.0518 51.602 46.3198C51.177 46.5928 50.661 46.9288 50.072 47.3168V48.8698C50.462 48.1048 51.315 47.4198 51.977 47.3848C52.262 47.3698 53.252 48.2848 57.332 48.0598C59.312 47.9508 63.137 45.8398 63.077 43.4098C63.041 41.9738 62.291 40.8538 61.3 39.9878ZM50.071 43.7398V45.3218C50.432 45.0808 50.788 44.8438 51.137 44.6128C50.588 44.2308 50.199 43.8738 50.071 43.7398ZM59.905 38.9948C59.525 38.7698 59.14 38.5728 58.771 38.3988C56.851 37.4988 54.841 37.3338 54.421 36.1188C54.125 35.2618 54.961 34.4688 57.001 34.4988C59.041 34.5288 60.931 35.7438 61.441 36.1788V32.3088C61.291 32.4588 60.633 33.2138 60.031 33.0888C58.876 32.8488 56.911 32.5358 54.661 32.5488C52.081 32.5638 49.861 34.5578 49.786 37.0788C49.681 40.6038 52.501 41.5638 54.091 42.1188C54.255 42.1758 54.442 42.2368 54.645 42.3018C56.17 41.3098 57.376 40.5458 58.082 40.1388C58.556 39.8658 59.177 39.4738 59.905 38.9948Z" fill="white"/>
</svg>
